<svg id="visual" viewBox="0 0 960 540" width="960" height="540" xmlns="http://www.w3.org/2000/svg" xmlns:xlink="http://www.w3.org/1999/xlink" version="1.1"><rect x="0" y="0" width="960" height="540" fill="#001220"></rect><defs><linearGradient id="grad1_0" x1="43.8%" y1="100%" x2="100%" y2="0%"><stop offset="14.444444444444446%" stop-color="#001220" stop-opacity="1"></stop><stop offset="85.55555555555554%" stop-color="#001220" stop-opacity="1"></stop></linearGradient></defs><defs><linearGradient id="grad2_0" x1="0%" y1="100%" x2="56.3%" y2="0%"><stop offset="14.444444444444446%" stop-color="#001220" stop-opacity="1"></stop><stop offset="85.55555555555554%" stop-color="#001220" stop-opacity="1"></stop></linearGradient></defs><g transform="translate(960, 540)"><path d="M-270 0C-257.7 -26.1 -245.5 -52.2 -235.9 -76.6C-226.2 -101.1 -219.2 -123.8 -208.7 -151.6C-198.3 -179.5 -184.3 -212.5 -158.7 -218.4C-133.1 -224.4 -95.8 -203.2 -67.4 -207.3C-39 -211.4 -19.5 -240.7 0 -270L0 0Z" fill="#FBAE3C"></path></g><g transform="translate(0, 0)"><path d="M270 0C248.6 24.6 227.2 49.2 212.1 68.9C197 88.7 188.1 103.6 183.6 133.4C179.2 163.3 179.2 208.1 158.7 218.4C138.2 228.7 97.2 204.5 67.4 207.3C37.5 210.2 18.8 240.1 0 270L0 0Z" fill="#FBAE3C"></path></g></svg>