<svg id="visual" viewBox="0 0 960 540" width="960" height="540" xmlns="http://www.w3.org/2000/svg" xmlns:xlink="http://www.w3.org/1999/xlink" version="1.1"><g transform="translate(481.6180429686395 285.41135689565857)"><path d="M70.2 -139.3C90.4 -109.9 105.8 -90 137 -68.3C168.2 -46.7 215.1 -23.3 228.5 7.7C241.9 38.8 221.9 77.7 189.4 97.2C157 116.6 112.3 116.8 78.6 124C45 131.3 22.5 145.6 -10.8 164.4C-44.2 183.2 -88.3 206.3 -112.3 193.5C-136.3 180.7 -140 131.8 -158.9 93.6C-177.8 55.3 -211.9 27.7 -226.9 -8.7C-241.9 -45 -237.9 -90 -217.6 -125.8C-197.2 -161.6 -160.6 -188.2 -121.6 -206.7C-82.7 -225.2 -41.3 -235.6 -8.2 -221.4C25 -207.3 50 -168.6 70.2 -139.3" fill="#000000"></path></g></svg>